<svg xmlns="http://www.w3.org/2000/svg" xmlns:xlink="http://www.w3.org/1999/xlink" aria-hidden="true" role="img" class="iconify iconify--logos" width="35.93" height="32" preserveAspectRatio="xMidYMid meet" viewBox="0 0 256 228"><path fill="#00D8FF" d="M210.483 73.824a171.49 171.49 0 0 0-8.24-2.597c.465-1.9.893-3.777 1.273-5.621c6.238-30.281 2.16-54.676-11.769-62.708c-13.355-7.7-35.196.329-57.254 19.526a171.23 171.23 0 0 0-6.375 5.848a155.866 155.866 0 0 0-4.241-3.917C100.759 3.829 77.587-4.822 63.673 3.233C50.33 10.957 46.379 33.89 51.995 62.588a170.974 170.974 0 0 0 1.892 8.48c-3.28.932-6.445 1.924-9.474 2.98C17.309 83.498 0 98.307 0 113.668c0 15.865 18.582 31.778 46.812 41.427a145.52 145.52 0 0 0 6.921 2.165a167.467 167.467 0 0 0-2.01 9.138c-5.354 28.2-1.173 50.591 12.134 58.266c13.744 7.926 36.812-.22 59.273-19.855a145.567 145.567 0 0 0 5.342-4.923a168.064 168.064 0 0 0 6.92 6.314c21.758 18.722 43.246 26.282 56.54 18.586c13.731-7.949 18.194-32.003 12.4-61.268a145.016 145.016 0 0 0-1.535-6.842c1.62-.48 3.21-.974 4.76-1.488c29.348-9.723 48.443-25.443 48.443-41.52c0-15.417-17.868-30.326-45.517-39.844Zm-6.365 70.984c-1.596.54-3.233 1.057-4.902 1.557c-3.723-12.451-9.678-26.34-17.781-39.913c7.542-13.931 13.217-27.423 16.712-39.547c8.209 2.49 15.49 5.555 21.5 9.07c14.467 8.achieves 22.678 17.84 22.678 26.43c0 14.689-18.261 30.28-38.207 42.403Zm-2.548 10.833c.89 3.879 1.62 7.484 2.155 10.744c4.006 23.982.48 42.017-8.296 47.06c-9.082 5.25-27.047-1.99-46.14-18.773a135.909 135.909 0 0 1-6.461-5.926c7.21-8.156 14.138-17.49 20.587-27.648c11.723-1.379 22.823-3.5 32.984-6.173a135.66 135.66 0 0 1 5.171 20.716Zm-140.26 35.8c-9.196-4.895-12.82-23.374-8.327-48.47c.711-3.844 1.583-7.799 2.6-11.823c10.239 2.621 21.432 4.699 33.224 6.071c6.441 10.084 13.273 19.346 20.36 27.411c-4.12 3.932-8.467 7.572-12.99 10.783c-18.619 12.978-36.353 19.533-34.867 16.028Zm-17.706-35.8c-19.31-11.857-36.544-27.201-36.544-41.55c0-8.689 7.925-17.705 22.32-25.698c5.918-3.33 13.008-6.304 20.976-8.856c3.534 12.254 9.243 25.857 16.821 39.915c-7.685 13.773-13.486 27.328-17.069 39.786c-2.496-.727-4.914-1.52-7.235-2.38c-.42-.155-.835-.309-1.269-.461v.244Zm139.864-91.772c18.708 12.639 34.867 27.63 34.867 40.896c0 8.548-7.636 17.38-21.693 25.116c-5.778 3.156-12.512 6.007-19.987 8.487c-3.49-12.19-9.167-25.648-16.733-39.654c7.508-13.744 13.164-27.09 16.62-39.101a121.878 121.878 0 0 1 6.926 4.256ZM128.401 87.1c4.248 7.177 8.278 14.754 12.009 22.611c-3.77.183-7.624.276-11.54.276c-3.845 0-7.638-.088-11.35-.258c3.702-7.82 7.703-15.367 11.881-22.629ZM91.296 145.57c-7.609-12.78-14.037-25.682-19.076-38.265c5.079-12.557 11.518-25.362 19.135-37.984c6.274-.463 12.884-.698 19.77-.698c6.827 0 13.388.23 19.615.68c7.575 12.578 14.012 25.358 19.083 37.896c-5.046 12.514-11.458 25.357-19.009 38.013c-6.327.471-12.936.716-19.782.716c-6.807 0-13.374-.237-19.736-.698v.34Zm58.892 4.943c3.767 7.93 7.232 16.031 10.362 24.214c-10.228 2.775-21.385 4.92-33.189 6.293c3.996-5.572 7.943-11.44 11.818-17.575a228.38 228.38 0 0 0 11.009-12.932Zm-58.19 30.557c-11.854-1.375-23.055-3.53-33.327-6.334c3.098-8.104 6.52-16.125 10.245-23.987c3.671 5.466 7.436 10.89 11.256 16.246a232.33 232.33 0 0 0 11.826 14.075Zm-24.99-65.05c-3.708-7.886-7.128-15.875-10.225-23.878c10.218-2.731 21.349-4.83 33.088-6.189c-3.977 5.548-7.911 11.393-11.773 17.506a224.134 224.134 0 0 0-11.09 12.56Zm58.05-30.285c11.768 1.365 22.888 3.46 33.075 6.201c-3.065 7.942-6.486 15.922-10.2 23.803a225.77 225.77 0 0 0-10.965-12.464c-3.84-6.077-7.743-11.892-11.91-17.54Zm-6.573 82.56c-5.02-8.184-9.836-16.762-14.36-25.622c4.548.156 9.185.236 13.886.236c4.77 0 9.476-.083 14.088-.247c-4.557 8.875-9.39 17.448-14.46 25.555c-.386.62-.77 1.24-1.154 1.078Zm63.115-88.89c8.11 13.57 14.096 27.458 17.837 39.958c-10.175 2.703-21.272 4.826-33.002 6.208c3.955-5.57 7.865-11.42 11.71-17.538a228.49 228.49 0 0 0 3.455-28.628Zm-5.68-5.13c.18 8.96.098 18.112-.263 27.308c-3.607-5.378-7.28-10.706-11.006-15.966c3.77-3.783 7.512-7.462 11.27-11.341Zm-110.62 5.157c3.756 3.877 7.494 7.558 11.26 11.344c-3.71 5.26-7.368 10.579-10.965 15.947a224.69 224.69 0 0 1-.295-27.291Zm5.633-5.182c-.013 0-.02 0-.025.006c3.777 3.873 7.52 7.644 11.284 11.366c-3.72-5.287-7.395-10.636-11.012-16.025c-.087.22-.17.434-.247.653Zm83.554 136.847c-10.046 8.712-21.39 15.576-30.55 18.734c-8.657 2.988-15.19 2.198-18.495.277c-3.49-2.017-6.073-6.97-7.405-14.456c-.977-5.556-1.22-12.41-.762-20.165c10.28 2.612 21.48 4.69 33.255 6.053c6.56 10.206 13.52 19.638 20.698 27.846c1.093 1.243 2.17 2.447 3.26 3.711ZM82.43 198.11c-1.166-6.94-1.55-15.032-1.1-24.05c10.28-2.727 21.534-4.848 33.36-6.234c-4.006 5.62-7.99 11.505-11.941 17.62a231.927 231.927 0 0 1-20.319 12.664Z"></path></svg>
